<?xml version="1.0" encoding="UTF-8" ?>
<!DOCTYPE svg PUBLIC "-//W3C//DTD SVG 1.1//EN" "http://www.w3.org/Graphics/SVG/1.1/DTD/svg11.dtd">
<svg width="1320pt" height="683pt" viewBox="0 0 1320 683" version="1.1" xmlns="http://www.w3.org/2000/svg">
<g id="#ffffffff">
<path fill="#ffffff" opacity="1.00" d=" M 1177.65 36.06 C 1178.15 36.11 1179.15 36.22 1179.65 36.28 C 1182.32 42.30 1178.48 49.42 1181.95 55.10 C 1186.12 55.39 1189.71 52.32 1193.72 51.41 C 1195.62 53.01 1197.74 54.37 1200.06 55.31 C 1199.84 56.31 1199.62 57.30 1199.42 58.29 C 1195.75 59.03 1192.04 59.45 1188.37 60.12 C 1186.59 62.42 1184.88 64.79 1183.70 67.45 C 1186.99 67.25 1190.35 66.93 1193.62 67.71 C 1193.36 71.49 1189.29 72.17 1186.78 74.03 C 1186.70 75.58 1187.95 76.96 1188.46 78.41 C 1189.88 77.76 1191.33 77.11 1192.78 76.46 C 1193.56 80.95 1190.06 83.74 1187.33 86.60 C 1190.95 87.75 1194.52 89.09 1197.83 90.98 C 1200.63 92.63 1203.92 91.38 1206.93 91.18 C 1208.88 91.31 1209.98 93.46 1211.90 93.69 C 1214.57 92.95 1217.20 91.86 1220.05 92.11 C 1220.75 94.72 1219.14 97.23 1216.83 98.35 C 1214.26 99.23 1211.09 98.60 1209.21 100.90 C 1211.13 100.46 1212.98 99.51 1215.00 99.56 C 1218.04 100.25 1219.97 103.19 1222.97 103.99 C 1225.66 103.53 1227.59 101.21 1230.19 100.38 C 1232.18 102.44 1234.37 104.47 1237.40 104.72 C 1234.32 109.45 1228.60 111.84 1223.08 111.77 C 1218.35 113.25 1213.35 112.53 1208.91 110.49 C 1205.69 108.86 1201.94 110.37 1199.91 113.11 C 1202.39 114.13 1204.82 115.37 1206.69 117.35 C 1208.80 119.74 1212.05 117.58 1214.60 117.30 C 1215.92 121.84 1210.45 124.25 1207.07 122.05 C 1201.47 117.44 1194.14 115.51 1189.28 109.87 C 1189.65 115.51 1190.27 121.14 1191.31 126.70 C 1194.38 126.66 1199.06 125.55 1199.90 129.64 C 1197.44 129.86 1194.95 129.88 1192.51 129.91 C 1195.17 132.04 1198.27 133.84 1200.21 136.73 C 1200.46 138.20 1200.40 139.69 1200.50 141.17 C 1202.96 141.07 1205.74 141.47 1207.89 139.92 C 1210.17 138.39 1212.20 136.34 1215.02 135.81 C 1216.51 138.79 1215.91 142.13 1215.45 145.28 C 1216.97 144.31 1218.47 143.24 1220.10 142.40 C 1222.44 141.95 1223.59 144.63 1225.05 145.98 C 1228.40 144.99 1231.38 142.87 1234.88 142.40 C 1236.62 143.66 1237.66 145.60 1238.85 147.35 C 1240.85 146.64 1242.70 145.13 1244.92 145.22 C 1247.19 149.42 1242.61 152.50 1239.05 153.36 C 1238.75 155.28 1239.20 158.02 1237.02 158.97 C 1232.25 159.87 1226.87 160.24 1222.60 157.50 C 1220.06 155.73 1216.90 155.75 1213.95 155.63 C 1213.55 156.75 1213.16 157.88 1212.79 159.02 C 1210.46 159.83 1207.87 160.00 1205.78 161.35 C 1209.65 163.13 1215.21 160.74 1217.82 164.95 C 1219.89 168.63 1224.30 166.94 1227.69 167.29 C 1227.70 168.38 1227.72 169.47 1227.76 170.57 C 1223.25 171.11 1218.56 170.87 1214.27 172.55 C 1217.38 172.93 1220.65 172.79 1223.55 174.21 C 1226.63 175.51 1229.93 174.07 1233.12 174.09 C 1234.66 174.55 1235.88 175.63 1237.22 176.50 C 1240.11 173.87 1244.23 171.94 1248.01 173.97 C 1245.80 178.46 1240.85 181.09 1235.95 181.19 C 1232.25 181.25 1228.56 181.45 1224.93 182.16 C 1222.91 182.42 1221.43 180.69 1219.84 179.78 C 1215.41 180.46 1210.43 181.48 1206.48 178.72 C 1202.02 176.43 1201.14 171.09 1198.62 167.21 C 1197.33 170.98 1197.73 175.03 1196.81 178.88 C 1195.01 188.01 1192.33 197.60 1195.28 206.81 C 1198.95 209.16 1203.46 211.36 1207.89 209.80 C 1212.37 208.06 1216.96 210.48 1221.49 210.82 C 1226.57 213.41 1232.14 214.75 1237.37 216.99 C 1238.72 216.08 1240.00 213.93 1241.91 214.66 C 1243.39 215.52 1244.70 216.63 1246.07 217.68 C 1248.11 215.83 1249.88 213.68 1252.13 212.07 C 1254.04 211.11 1256.09 213.18 1256.34 215.02 C 1256.71 217.88 1254.65 220.22 1253.55 222.67 C 1256.28 222.75 1259.06 222.16 1261.76 222.93 C 1259.33 226.42 1254.77 227.39 1250.82 226.49 C 1246.35 225.49 1242.36 228.31 1238.09 228.98 C 1233.06 230.01 1227.74 228.30 1222.89 230.33 C 1225.67 230.96 1228.49 231.50 1231.26 232.26 C 1230.61 233.61 1230.16 235.13 1229.00 236.14 C 1223.20 236.45 1217.58 234.67 1212.29 232.51 L 1210.63 233.14 C 1211.70 234.40 1212.61 235.93 1214.13 236.75 C 1216.80 237.31 1219.56 237.10 1222.29 237.35 C 1220.95 239.53 1218.60 241.09 1215.96 240.83 C 1213.02 240.96 1211.33 238.29 1209.13 236.86 C 1206.74 236.32 1204.25 236.38 1201.87 235.92 C 1201.92 241.62 1201.77 247.33 1201.97 253.03 C 1205.18 256.20 1206.14 260.80 1205.76 265.17 C 1212.27 264.97 1218.83 266.17 1224.73 268.99 C 1226.25 266.85 1227.67 264.44 1230.05 263.13 C 1231.78 263.20 1232.67 264.89 1233.82 265.95 C 1236.25 266.02 1238.73 266.36 1240.84 267.72 C 1239.31 273.09 1232.64 272.80 1229.69 276.90 C 1233.43 276.52 1237.21 276.29 1240.98 276.66 C 1244.08 277.08 1246.77 273.91 1249.87 275.27 C 1252.51 276.22 1255.31 275.62 1258.06 275.77 C 1260.99 276.27 1263.05 278.78 1265.85 279.64 C 1268.55 279.34 1271.22 278.74 1273.96 278.56 C 1272.32 282.06 1268.19 283.46 1266.80 287.13 C 1262.93 286.70 1258.92 286.08 1255.12 287.25 C 1257.61 287.40 1260.38 286.97 1262.51 288.64 C 1262.09 291.52 1260.40 294.65 1257.11 294.63 C 1249.06 296.16 1242.86 289.09 1235.02 289.39 C 1233.71 289.35 1232.42 289.36 1231.15 289.41 C 1234.37 291.28 1238.42 291.25 1241.30 293.77 C 1244.23 296.10 1248.15 296.12 1251.54 297.38 C 1252.48 297.80 1253.76 298.23 1253.89 299.46 C 1251.65 300.93 1249.01 302.58 1246.22 301.80 C 1240.03 300.48 1234.83 296.72 1229.53 293.50 C 1227.30 291.96 1224.47 292.43 1221.99 291.84 C 1218.40 290.88 1217.80 284.74 1213.43 286.01 C 1214.63 287.65 1216.38 288.81 1217.53 290.49 C 1218.25 292.66 1215.90 294.42 1214.16 295.18 C 1210.06 296.60 1205.65 295.50 1201.43 295.71 C 1201.19 299.00 1204.69 298.57 1206.89 299.17 C 1209.00 299.53 1210.36 301.37 1211.89 302.69 C 1210.12 306.54 1205.97 308.45 1201.87 308.15 C 1201.88 389.79 1201.87 471.43 1201.87 553.06 C 1191.97 553.01 1182.07 552.95 1172.17 553.07 C 1099.16 461.09 1026.32 368.96 953.38 276.92 C 953.37 356.29 953.38 435.65 953.38 515.01 C 953.16 527.66 953.76 540.33 953.08 552.97 C 941.11 553.15 929.15 552.98 917.18 552.99 C 917.20 439.46 917.17 325.92 917.20 212.38 C 927.15 212.54 937.17 212.05 947.08 212.61 C 1020.21 304.39 1093.01 396.45 1166.10 488.28 C 1166.32 434.18 1166.11 380.08 1166.20 325.99 C 1166.28 322.84 1165.89 319.72 1165.39 316.63 C 1161.46 317.05 1157.40 316.95 1153.66 318.36 C 1151.81 319.09 1149.84 319.38 1147.89 319.42 C 1148.39 318.83 1149.41 317.64 1149.91 317.05 C 1148.94 316.34 1147.97 315.64 1147.02 314.95 C 1150.77 313.45 1154.47 310.60 1155.04 306.34 C 1151.19 307.35 1149.98 311.94 1146.26 313.26 C 1140.09 315.93 1134.24 320.54 1127.17 319.95 C 1127.94 318.69 1128.30 316.67 1130.05 316.43 C 1134.13 315.55 1138.16 314.35 1141.84 312.32 C 1138.73 311.06 1135.62 309.84 1132.43 308.85 C 1130.79 310.54 1129.50 313.05 1126.94 313.36 C 1118.46 314.98 1109.12 316.99 1100.98 313.04 C 1096.99 310.85 1092.61 307.20 1093.15 302.14 C 1096.96 302.46 1101.23 301.91 1104.47 304.42 C 1106.26 305.91 1108.62 305.77 1110.82 305.66 C 1110.37 301.85 1106.46 300.37 1104.58 297.46 C 1103.70 296.26 1104.52 294.23 1106.11 294.27 C 1108.09 294.59 1109.96 295.35 1111.90 295.94 C 1112.66 294.99 1113.48 294.08 1114.36 293.22 C 1117.40 293.05 1119.93 295.77 1123.02 295.33 C 1125.31 294.64 1128.44 294.10 1129.00 291.31 C 1124.31 291.41 1119.28 292.42 1114.94 290.14 C 1111.32 288.19 1107.22 286.98 1104.24 284.02 C 1105.04 282.65 1106.06 281.44 1107.19 280.32 C 1105.64 278.27 1102.44 276.57 1103.31 273.58 C 1105.41 273.16 1107.16 274.71 1108.95 275.54 C 1111.81 271.85 1115.58 275.49 1118.97 275.85 C 1122.40 275.85 1124.17 279.22 1127.03 280.53 C 1129.68 280.02 1132.28 277.45 1134.99 279.10 C 1137.48 280.45 1140.29 280.14 1143.02 279.92 C 1146.44 279.33 1148.53 282.57 1150.96 284.35 C 1156.08 283.49 1161.51 283.46 1166.12 280.75 C 1166.11 279.03 1166.11 277.31 1166.14 275.59 C 1161.13 277.79 1154.88 279.02 1150.05 275.77 C 1148.92 275.09 1148.94 272.84 1150.31 272.43 C 1155.42 270.50 1160.89 272.26 1166.13 272.51 C 1166.00 271.94 1165.73 270.81 1165.60 270.25 C 1160.05 268.51 1154.08 268.33 1148.66 266.15 C 1147.73 265.45 1147.11 264.45 1146.38 263.59 C 1148.52 263.20 1150.67 262.87 1152.82 262.46 C 1148.82 261.70 1144.31 261.70 1141.03 258.98 C 1139.23 257.40 1140.00 254.77 1139.89 252.70 C 1141.99 252.64 1144.17 252.65 1146.20 251.92 C 1137.46 250.70 1128.17 253.67 1119.84 249.88 C 1125.52 248.70 1131.35 248.37 1137.01 247.02 C 1142.96 245.81 1149.46 244.27 1155.25 246.98 C 1158.68 248.59 1162.56 247.59 1166.19 247.58 C 1166.26 232.05 1165.83 216.52 1166.32 200.99 C 1161.67 199.64 1156.76 197.98 1151.89 199.20 C 1145.32 200.61 1138.49 202.09 1131.79 200.69 C 1130.06 200.40 1128.01 199.05 1128.84 197.02 C 1132.20 196.09 1135.52 197.51 1138.86 197.88 C 1142.00 198.29 1145.16 197.57 1148.18 196.70 C 1141.83 193.16 1132.36 193.28 1129.05 185.76 C 1131.43 184.52 1134.66 182.73 1137.12 184.82 C 1139.44 186.70 1142.16 187.95 1145.03 188.78 C 1143.79 186.30 1142.77 183.22 1145.13 181.01 C 1143.43 180.11 1141.73 179.22 1140.03 178.37 C 1134.68 182.43 1127.38 184.42 1120.74 183.37 C 1120.24 182.52 1119.76 181.66 1119.29 180.81 C 1113.53 180.77 1107.52 181.13 1102.08 178.92 C 1100.61 178.41 1099.75 177.04 1098.76 175.95 C 1102.26 175.17 1106.88 176.09 1108.83 172.25 C 1110.47 172.79 1112.12 173.38 1113.76 173.99 C 1114.84 173.17 1115.90 172.32 1117.11 171.67 C 1118.63 172.08 1119.88 173.11 1121.19 173.96 C 1124.12 173.62 1127.08 173.38 1130.05 173.39 C 1128.19 171.36 1126.71 168.94 1126.51 166.14 C 1133.67 165.19 1140.33 170.47 1147.60 168.30 C 1149.14 167.35 1147.03 166.36 1146.39 165.60 C 1143.85 164.04 1140.91 163.15 1138.76 161.02 C 1139.67 159.64 1140.37 157.84 1142.10 157.28 C 1145.44 155.94 1148.71 158.35 1152.05 158.53 C 1153.48 158.13 1154.82 157.43 1156.22 156.86 C 1158.21 158.39 1160.25 159.82 1162.41 161.12 C 1162.46 158.63 1162.03 156.08 1162.45 153.62 C 1165.75 150.63 1165.14 145.28 1169.25 143.02 C 1166.50 142.44 1164.37 140.45 1163.91 137.62 C 1164.83 137.56 1166.69 137.44 1167.61 137.38 C 1167.56 136.90 1167.46 135.95 1167.41 135.47 C 1164.18 136.40 1160.83 136.89 1157.49 136.41 C 1157.71 134.35 1159.68 133.35 1161.09 132.15 C 1165.82 128.64 1171.00 125.06 1173.13 119.29 C 1170.25 120.64 1167.56 122.33 1164.73 123.75 C 1164.27 123.30 1163.36 122.40 1162.90 121.95 C 1165.85 119.74 1170.24 119.63 1172.62 116.77 C 1172.85 108.43 1172.50 100.09 1172.64 91.75 C 1169.19 93.45 1165.55 94.69 1161.97 96.03 C 1158.34 97.23 1156.06 101.25 1151.99 101.26 C 1149.92 101.47 1148.04 100.52 1146.19 99.80 C 1146.24 98.45 1146.34 97.11 1146.43 95.76 C 1149.03 96.17 1151.89 97.26 1154.45 96.47 C 1157.54 93.61 1161.33 91.75 1165.43 90.80 C 1162.51 86.71 1156.91 86.65 1152.64 88.37 C 1147.35 90.40 1141.56 91.10 1136.08 89.46 C 1130.36 89.84 1123.45 86.73 1121.90 80.88 C 1124.85 81.57 1126.97 79.70 1129.12 78.03 C 1132.62 76.27 1134.46 81.80 1137.98 81.33 C 1141.65 80.92 1144.47 78.07 1148.11 77.49 C 1150.84 77.31 1153.59 78.56 1156.29 77.63 C 1152.73 76.10 1148.17 77.76 1145.32 74.66 C 1144.21 73.68 1143.28 70.86 1145.37 70.49 C 1148.35 69.74 1151.22 71.35 1154.15 71.71 C 1156.51 71.05 1158.37 68.75 1160.93 68.83 C 1165.99 69.63 1170.88 67.40 1175.44 65.46 C 1177.69 64.99 1176.95 61.60 1174.99 61.34 C 1169.41 60.50 1163.16 58.86 1160.45 53.35 C 1165.40 50.12 1170.74 54.68 1175.96 54.52 C 1175.97 51.08 1171.48 51.17 1170.78 48.04 C 1172.27 47.72 1173.77 47.47 1175.31 47.24 C 1176.07 43.51 1176.86 39.79 1177.65 36.06 M 1166.94 89.85 C 1169.04 89.85 1170.92 88.78 1172.58 87.56 C 1172.30 86.92 1171.75 85.65 1171.48 85.01 C 1169.69 86.35 1167.88 87.77 1166.94 89.85 M 1187.78 94.68 C 1187.73 95.80 1187.75 96.92 1187.80 98.04 C 1189.84 97.34 1191.86 96.56 1193.85 95.68 C 1191.86 95.06 1189.85 94.61 1187.78 94.68 M 1192.27 108.05 C 1194.16 109.99 1196.38 111.60 1198.87 112.72 C 1198.26 109.62 1195.42 107.57 1192.27 108.05 M 1199.49 149.96 C 1199.14 151.47 1201.42 152.96 1202.70 152.09 C 1203.08 150.65 1200.65 149.09 1199.49 149.96 M 1204.53 170.32 C 1205.37 174.86 1209.95 177.60 1214.38 177.29 C 1211.58 174.36 1208.25 171.94 1204.53 170.32 M 1147.05 182.02 C 1149.77 184.38 1152.67 186.55 1155.90 188.19 C 1157.97 185.15 1161.71 184.48 1165.14 185.14 C 1159.56 182.26 1153.16 182.18 1147.05 182.02 M 1202.01 257.87 C 1201.84 260.60 1201.85 263.33 1201.87 266.07 C 1202.56 266.12 1203.26 266.18 1203.97 266.24 C 1203.89 263.33 1203.36 260.45 1202.01 257.87 M 1201.92 281.29 C 1201.88 283.02 1201.83 284.75 1201.80 286.48 C 1205.06 288.11 1208.68 287.08 1211.96 286.05 C 1209.00 283.71 1205.39 282.57 1201.92 281.29 M 1161.89 302.30 C 1162.81 302.56 1164.67 303.06 1165.60 303.32 C 1165.52 302.19 1165.46 301.08 1165.42 299.96 C 1164.23 300.74 1163.05 301.52 1161.89 302.30 M 1157.37 307.00 C 1157.43 309.68 1156.76 312.31 1155.08 314.45 C 1158.46 313.42 1162.01 313.51 1165.51 313.66 C 1165.53 311.47 1165.55 309.29 1165.58 307.11 C 1162.84 306.77 1160.09 306.72 1157.37 307.00 Z" />
<path fill="#ffffff" opacity="1.00" d=" M 55.37 212.45 C 65.33 212.32 75.29 212.35 85.24 212.45 C 158.25 304.49 231.34 396.46 304.37 488.47 C 304.39 396.44 304.36 304.42 304.39 212.39 C 316.27 212.36 328.16 212.38 340.05 212.37 C 340.08 325.92 340.06 439.46 340.06 553.00 C 330.11 553.00 320.15 553.00 310.20 553.00 C 237.33 460.98 164.46 368.96 91.56 276.96 C 91.54 368.99 91.62 461.02 91.51 553.05 C 79.47 552.98 67.42 552.95 55.37 553.07 C 55.38 439.53 55.38 325.99 55.37 212.45 Z" />
<path fill="#ffffff" opacity="1.00" d=" M 376.40 212.39 C 388.77 212.39 401.14 212.30 413.51 212.46 C 446.24 309.95 478.79 407.49 511.66 504.93 C 545.56 407.43 579.36 309.89 613.23 212.37 C 624.45 212.39 635.67 212.37 646.90 212.38 C 680.38 310.34 713.55 408.40 747.11 506.32 C 780.37 408.38 813.47 310.38 846.65 212.41 C 858.21 212.33 869.78 212.39 881.34 212.38 C 843.21 325.95 804.83 439.43 766.66 552.98 C 753.98 553.04 741.30 552.94 728.62 553.13 C 695.17 456.45 662.21 359.60 628.76 262.92 C 595.51 359.66 562.08 456.34 528.77 553.07 C 516.24 552.96 503.70 552.95 491.16 553.07 C 452.91 439.51 414.62 325.97 376.40 212.39 Z" />
<path fill="#ffffff" opacity="1.00" d=" M 1215.07 529.41 C 1215.68 529.44 1216.91 529.51 1217.52 529.54 C 1217.50 536.78 1217.51 544.01 1217.52 551.25 C 1220.68 551.25 1223.86 551.25 1227.05 551.25 C 1227.03 551.82 1226.99 552.96 1226.97 553.53 C 1222.99 553.51 1219.01 553.49 1215.04 553.54 C 1214.99 545.50 1214.93 537.45 1215.07 529.41 Z" />
<path fill="#ffffff" opacity="1.00" d=" M 1230.75 529.50 C 1231.57 529.50 1232.41 529.50 1233.27 529.50 C 1233.26 536.75 1233.27 544.00 1233.26 551.25 C 1236.43 551.25 1239.61 551.25 1242.80 551.26 C 1242.79 551.82 1242.77 552.95 1242.77 553.52 C 1238.75 553.51 1234.75 553.51 1230.75 553.51 C 1230.75 545.50 1230.74 537.50 1230.75 529.50 Z" />
<path fill="#ffffff" opacity="1.00" d=" M 1249.00 532.97 C 1254.54 527.22 1264.94 527.76 1269.95 533.96 C 1269.46 534.33 1268.49 535.06 1268.00 535.43 C 1263.69 530.03 1254.53 529.80 1250.28 535.36 C 1246.49 540.04 1248.13 547.84 1253.62 550.45 C 1258.37 553.05 1264.39 551.61 1267.97 547.69 C 1268.48 548.01 1269.50 548.63 1270.01 548.95 C 1265.16 555.00 1255.15 555.82 1249.45 550.56 C 1244.57 546.13 1244.22 537.59 1249.00 532.97 Z" />
<path fill="#ffffff" opacity="1.00" d=" M 57.01 572.80 C 65.70 581.63 73.59 591.25 81.98 600.38 C 81.99 591.33 81.98 582.29 81.99 573.25 C 83.19 573.24 84.39 573.24 85.60 573.25 C 85.47 585.26 85.83 597.28 85.41 609.28 C 76.99 600.36 69.00 591.03 60.74 581.96 C 60.73 590.89 60.73 599.83 60.74 608.77 C 59.48 608.76 58.21 608.76 56.96 608.76 C 56.99 596.77 56.88 584.78 57.01 572.80 Z" />
<path fill="#ffffff" opacity="1.00" d=" M 105.39 573.56 C 115.97 569.53 129.52 576.43 131.01 587.99 C 133.11 598.41 124.40 608.93 113.94 609.44 C 104.39 610.65 94.38 603.69 93.05 594.01 C 91.53 585.36 97.04 576.24 105.39 573.56 M 107.52 576.66 C 100.96 578.51 96.09 585.08 96.66 591.95 C 96.84 600.58 105.72 607.29 114.08 605.86 C 121.79 605.16 128.20 597.88 127.44 590.08 C 127.24 580.47 116.40 573.69 107.52 576.66 Z" />
<path fill="#ffffff" opacity="1.00" d=" M 138.63 573.25 C 144.31 573.51 150.22 572.56 155.74 574.22 C 161.70 576.22 163.34 584.71 159.03 589.08 C 156.44 591.85 152.43 592.10 148.89 592.35 C 153.30 597.78 157.61 603.30 161.98 608.77 C 160.45 608.75 158.92 608.75 157.40 608.74 C 153.12 603.25 148.72 597.85 144.45 592.35 C 143.92 592.31 142.84 592.23 142.31 592.20 C 142.26 597.72 142.29 603.24 142.28 608.76 C 141.37 608.76 139.54 608.76 138.62 608.76 C 138.63 596.92 138.62 585.09 138.63 573.25 M 142.29 576.75 C 142.28 580.75 142.28 584.74 142.28 588.74 C 146.39 588.56 150.81 589.47 154.69 587.76 C 158.63 585.82 158.55 579.44 154.56 577.61 C 150.64 576.17 146.37 576.97 142.29 576.75 Z" />
<path fill="#ffffff" opacity="1.00" d=" M 165.56 573.25 C 172.23 573.25 178.91 573.25 185.58 573.25 C 185.58 574.41 185.58 575.59 185.58 576.76 C 182.87 576.76 180.16 576.76 177.46 576.76 C 177.45 587.43 177.46 598.10 177.45 608.77 C 176.52 608.77 174.65 608.77 173.72 608.76 C 173.72 598.10 173.71 587.43 173.72 576.77 C 171.00 576.76 168.28 576.76 165.56 576.76 C 165.56 575.58 165.56 574.42 165.56 573.25 Z" />
<path fill="#ffffff" opacity="1.00" d=" M 190.88 573.25 C 192.10 573.24 193.33 573.24 194.57 573.25 C 194.56 578.17 194.56 583.08 194.56 588.00 C 200.73 588.00 206.90 588.00 213.08 588.00 C 213.08 583.08 213.07 578.16 213.08 573.25 C 214.31 573.24 215.53 573.24 216.77 573.25 C 216.76 585.09 216.76 596.92 216.77 608.76 C 215.53 608.76 214.31 608.76 213.08 608.77 C 213.08 603.02 213.08 597.26 213.08 591.51 C 206.91 591.51 200.73 591.51 194.56 591.52 C 194.56 597.26 194.55 603.01 194.57 608.76 C 193.33 608.75 192.10 608.76 190.88 608.77 C 190.87 596.93 190.87 585.09 190.88 573.25 Z" />
<path fill="#ffffff" opacity="1.00" d=" M 223.36 573.26 C 224.61 573.24 225.86 573.23 227.11 573.23 C 229.52 581.70 232.18 590.11 234.37 598.65 C 238.27 590.35 241.45 581.26 245.24 572.72 C 249.35 580.82 252.09 589.56 255.76 597.88 C 255.89 597.86 256.16 597.84 256.30 597.82 C 258.79 589.65 261.15 581.45 263.58 573.26 C 264.91 573.23 266.25 573.21 267.60 573.23 C 263.37 585.07 260.66 597.41 256.49 609.27 C 252.65 600.18 249.16 590.94 245.36 581.83 C 241.45 590.90 238.17 600.27 233.85 609.15 C 230.27 597.21 226.87 585.22 223.36 573.26 Z" />
<path fill="#ffffff" opacity="1.00" d=" M 274.20 573.25 C 281.17 573.24 288.14 573.27 295.11 573.24 C 295.10 574.41 295.10 575.58 295.10 576.77 C 289.36 576.76 283.61 576.76 277.86 576.77 C 277.86 580.42 277.86 584.08 277.85 587.74 C 283.55 587.75 289.25 587.74 294.95 587.75 C 294.95 588.63 294.95 590.39 294.95 591.27 C 289.26 591.25 283.58 591.30 277.89 591.24 C 277.83 595.91 277.87 600.58 277.86 605.25 C 283.56 605.25 289.25 605.25 294.95 605.25 C 294.95 606.41 294.95 607.59 294.95 608.77 C 288.03 608.76 281.12 608.76 274.20 608.77 C 274.20 596.93 274.20 585.09 274.20 573.25 Z" />
<path fill="#ffffff" opacity="1.00" d=" M 300.67 584.53 C 298.04 580.03 300.96 573.82 306.02 572.81 C 310.80 571.37 315.42 574.29 318.18 578.03 C 317.19 578.75 316.20 579.47 315.22 580.21 C 313.24 577.84 310.53 575.22 307.13 576.14 C 303.52 576.71 302.34 581.52 304.83 584.01 C 309.19 588.58 316.17 591.02 318.37 597.43 C 320.51 603.71 314.26 610.11 308.00 609.51 C 303.13 609.56 299.55 605.77 297.33 601.85 C 298.36 601.23 299.39 600.63 300.43 600.03 C 302.28 603.05 305.04 606.62 309.08 605.93 C 312.78 605.67 316.04 601.68 314.42 598.03 C 311.40 592.10 304.07 590.13 300.67 584.53 Z" />
<path fill="#ffffff" opacity="1.00" d=" M 322.84 573.41 C 329.48 573.02 336.16 573.37 342.83 573.25 C 342.82 574.41 342.82 575.59 342.83 576.77 C 340.12 576.76 337.41 576.76 334.70 576.77 C 334.70 587.43 334.70 598.10 334.70 608.76 C 333.45 608.76 332.21 608.76 330.97 608.77 C 330.97 598.10 330.97 587.43 330.97 576.77 C 328.23 576.76 325.50 576.76 322.77 576.76 C 322.78 575.92 322.82 574.25 322.84 573.41 Z" />
<path fill="#ffffff" opacity="1.00" d=" M 387.23 573.25 C 388.43 573.24 389.63 573.24 390.84 573.25 C 390.69 585.26 391.16 597.29 390.60 609.28 C 382.26 600.30 374.23 591.05 365.99 581.97 C 365.97 590.90 365.99 599.83 365.98 608.77 C 364.72 608.76 363.46 608.76 362.20 608.77 C 362.36 596.76 361.90 584.73 362.44 572.74 C 370.82 581.80 378.87 591.16 387.19 600.28 C 387.30 591.27 387.21 582.26 387.23 573.25 Z" />
<path fill="#ffffff" opacity="1.00" d=" M 399.80 573.25 C 400.71 573.25 402.54 573.25 403.45 573.24 C 403.51 581.57 403.35 589.91 403.53 598.24 C 403.40 601.59 405.72 604.59 408.93 605.46 C 413.60 607.39 419.69 604.23 420.09 599.02 C 420.56 590.44 420.17 581.84 420.29 573.25 C 421.51 573.24 422.72 573.24 423.95 573.25 C 423.95 580.49 423.97 587.73 423.95 594.98 C 423.88 598.97 423.53 603.51 420.35 606.36 C 414.23 612.54 400.99 609.37 400.08 600.15 C 399.47 591.20 399.95 582.21 399.80 573.25 Z" />
<path fill="#ffffff" opacity="1.00" d=" M 433.13 573.25 C 439.86 573.88 448.05 571.38 453.55 576.43 C 457.24 580.20 456.64 587.28 452.18 590.21 C 449.62 592.01 446.38 592.08 443.38 592.34 C 447.79 597.77 452.10 603.29 456.47 608.76 C 454.96 608.76 453.46 608.76 451.96 608.77 C 447.54 603.37 443.40 597.74 438.86 592.44 C 438.34 592.36 437.30 592.20 436.79 592.13 C 436.77 597.67 436.78 603.22 436.78 608.76 C 435.56 608.76 434.34 608.76 433.13 608.77 C 433.12 596.93 433.12 585.09 433.13 573.25 M 436.78 576.77 C 436.78 580.76 436.78 584.74 436.78 588.74 C 440.83 588.60 445.09 589.37 448.96 587.89 C 453.25 586.02 453.10 579.03 448.66 577.43 C 444.81 576.30 440.73 576.91 436.78 576.77 Z" />
<path fill="#ffffff" opacity="1.00" d=" M 462.95 584.08 C 460.56 579.40 463.95 573.38 469.08 572.68 C 473.75 571.55 478.01 574.50 480.72 578.04 C 479.68 578.77 478.64 579.48 477.61 580.22 C 475.93 578.16 473.88 575.84 470.96 575.99 C 468.26 575.83 465.57 578.22 466.01 581.03 C 466.43 584.33 469.63 586.06 472.02 587.88 C 475.89 590.70 480.49 593.87 481.21 599.00 C 482.01 605.05 475.88 610.20 470.08 609.48 C 465.38 609.36 462.04 605.64 459.83 601.89 C 460.85 601.25 461.89 600.63 462.93 600.01 C 464.73 602.90 467.24 606.33 471.09 605.99 C 474.95 605.95 478.60 601.91 476.94 598.07 C 473.88 591.94 466.14 590.07 462.95 584.08 Z" />
<path fill="#ffffff" opacity="1.00" d=" M 488.95 573.25 C 495.92 573.25 502.89 573.25 509.86 573.25 C 509.85 574.41 509.85 575.59 509.86 576.77 C 504.11 576.76 498.36 576.76 492.61 576.77 C 492.60 580.42 492.61 584.08 492.60 587.74 C 498.30 587.75 504.00 587.75 509.70 587.75 C 509.70 588.63 509.70 590.39 509.70 591.27 C 503.99 591.28 498.29 591.23 492.58 591.30 C 492.63 595.95 492.60 600.60 492.61 605.25 C 498.31 605.25 504.00 605.25 509.70 605.25 C 509.70 606.41 509.70 607.58 509.70 608.76 C 502.79 608.76 495.87 608.76 488.96 608.77 C 488.95 596.93 488.95 585.09 488.95 573.25 Z" />
<path fill="#ffffff" opacity="1.00" d=" M 515.98 575.96 C 518.59 572.42 523.80 571.59 527.66 573.44 C 529.82 574.42 531.35 576.31 532.95 578.02 C 531.95 578.74 530.95 579.47 529.96 580.21 C 527.97 577.84 525.27 575.19 521.86 576.15 C 518.45 576.70 517.13 581.14 519.32 583.67 C 523.71 588.66 531.39 591.05 533.29 598.02 C 534.94 604.46 528.31 610.43 522.07 609.46 C 517.46 609.22 514.21 605.54 512.06 601.83 C 513.12 601.22 514.20 600.64 515.28 600.07 C 516.94 602.89 519.34 606.10 522.99 606.01 C 526.96 606.16 530.88 602.06 529.20 598.09 C 526.37 592.61 520.03 590.42 516.23 585.80 C 514.01 583.03 513.82 578.80 515.98 575.96 Z" />
<path fill="#ffffff" opacity="1.00" d=" M 645.17 573.25 C 646.39 573.24 647.62 573.24 648.86 573.25 C 648.86 583.91 648.85 594.58 648.86 605.25 C 653.52 605.25 658.19 605.25 662.86 605.25 C 662.85 606.41 662.85 607.59 662.86 608.77 C 656.96 608.76 651.07 608.76 645.17 608.77 C 645.17 596.93 645.17 585.09 645.17 573.25 Z" />
<path fill="#ffffff" opacity="1.00" d=" M 668.71 573.15 C 669.94 573.21 671.17 573.27 672.42 573.34 C 672.29 583.98 672.39 594.62 672.37 605.25 C 677.03 605.25 681.70 605.25 686.37 605.26 C 686.36 606.42 686.35 607.58 686.36 608.76 C 680.46 608.77 674.57 608.76 668.67 608.77 C 668.69 596.90 668.62 585.02 668.71 573.15 Z" />
<path fill="#ffffff" opacity="1.00" d=" M 691.40 573.25 C 692.61 573.24 693.83 573.24 695.06 573.25 C 695.06 585.09 695.06 596.93 695.06 608.77 C 693.83 608.76 692.61 608.76 691.40 608.76 C 691.41 596.92 691.41 585.09 691.40 573.25 Z" />
<path fill="#ffffff" opacity="1.00" d=" M 703.45 573.25 C 710.42 573.25 717.39 573.24 724.37 573.26 C 724.36 574.41 724.36 575.58 724.37 576.75 C 718.62 576.78 712.86 576.75 707.11 576.77 C 707.10 580.42 707.10 584.09 707.11 587.75 C 712.81 587.74 718.50 587.75 724.20 587.75 C 724.20 588.63 724.20 590.39 724.20 591.27 C 718.50 591.26 712.81 591.27 707.11 591.26 C 707.11 595.92 707.11 600.58 707.11 605.25 C 712.81 605.25 718.51 605.24 724.22 605.26 C 724.20 606.41 724.20 607.57 724.22 608.74 C 717.29 608.79 710.37 608.75 703.45 608.76 C 703.46 596.93 703.46 585.09 703.45 573.25 Z" />
<path fill="#ffffff" opacity="1.00" d=" M 730.67 573.25 C 737.91 573.52 745.65 572.31 752.43 575.49 C 764.23 581.25 764.51 600.94 752.76 606.89 C 745.81 609.90 738.01 608.38 730.67 608.77 C 730.67 596.93 730.67 585.09 730.67 573.25 M 734.19 576.76 C 734.19 586.26 734.19 595.75 734.19 605.25 C 739.82 605.02 745.90 605.93 751.15 603.38 C 760.18 598.67 759.77 583.57 750.86 578.93 C 745.74 576.30 739.75 576.91 734.19 576.76 Z" />
<path fill="#ffffff" opacity="1.00" d=" M 782.37 573.25 C 783.60 573.25 784.81 573.24 786.06 573.25 C 786.06 578.16 786.06 583.08 786.06 588.00 C 792.23 588.00 798.40 588.00 804.58 588.00 C 804.57 583.08 804.58 578.17 804.57 573.26 C 805.79 573.25 807.02 573.24 808.26 573.24 C 808.27 585.08 808.27 596.91 808.26 608.75 C 807.34 608.75 805.50 608.75 804.58 608.75 C 804.57 603.00 804.58 597.26 804.57 591.51 C 798.41 591.51 792.24 591.52 786.08 591.51 C 786.05 597.25 786.07 603.00 786.06 608.75 C 784.81 608.73 783.60 608.74 782.37 608.75 C 782.38 596.91 782.38 585.08 782.37 573.25 Z" />
<path fill="#ffffff" opacity="1.00" d=" M 816.96 573.25 C 823.92 573.25 830.89 573.25 837.86 573.25 C 837.85 574.41 837.85 575.59 837.86 576.77 C 832.11 576.76 826.36 576.76 820.61 576.77 C 820.60 580.42 820.60 584.08 820.60 587.74 C 826.30 587.75 832.00 587.75 837.70 587.75 C 837.70 588.63 837.70 590.39 837.70 591.27 C 832.00 591.26 826.31 591.27 820.61 591.26 C 820.60 595.92 820.60 600.58 820.61 605.25 C 826.30 605.25 832.00 605.25 837.70 605.25 C 837.69 606.41 837.69 607.58 837.70 608.75 C 830.79 608.75 823.87 608.75 816.95 608.75 C 816.95 596.92 816.95 585.08 816.96 573.25 Z" />
<path fill="#ffffff" opacity="1.00" d=" M 858.41 572.84 C 861.47 577.01 863.02 582.10 865.48 586.64 C 869.00 594.01 872.53 601.38 876.05 608.75 C 874.73 608.74 873.42 608.74 872.12 608.75 C 870.25 604.93 868.38 601.11 866.53 597.28 C 861.20 597.28 855.87 597.21 850.55 597.32 C 848.78 601.16 846.89 604.94 845.05 608.75 C 843.69 608.74 842.33 608.74 840.99 608.75 C 846.81 596.78 852.53 584.77 858.41 572.84 M 858.60 580.81 C 856.53 585.13 854.43 589.43 852.34 593.75 C 856.52 593.74 860.70 593.75 864.88 593.75 C 862.79 589.43 860.75 585.09 858.60 580.81 Z" />
<path fill="#ffffff" opacity="1.00" d=" M 881.67 573.25 C 882.59 573.25 884.44 573.25 885.36 573.25 C 885.37 583.92 885.35 594.58 885.37 605.25 C 890.03 605.25 894.70 605.25 899.37 605.26 C 899.35 606.41 899.35 607.57 899.36 608.75 C 893.46 608.75 887.57 608.74 881.67 608.75 C 881.67 596.92 881.67 585.08 881.67 573.25 Z" />
<path fill="#ffffff" opacity="1.00" d=" M 901.56 573.25 C 908.23 573.25 914.90 573.25 921.58 573.25 C 921.57 574.41 921.57 575.59 921.58 576.76 C 918.87 576.76 916.16 576.76 913.46 576.76 C 913.45 587.42 913.45 598.07 913.46 608.73 C 912.20 608.73 910.96 608.74 909.72 608.76 C 909.68 598.08 909.78 587.40 909.67 576.72 C 906.96 576.77 904.25 576.77 901.56 576.76 C 901.55 575.58 901.55 574.42 901.56 573.25 Z" />
<path fill="#ffffff" opacity="1.00" d=" M 948.83 573.25 C 950.03 573.24 951.29 573.25 952.52 573.26 C 952.51 585.08 952.51 596.91 952.52 608.74 C 951.28 608.74 950.03 608.73 948.83 608.75 C 948.82 603.00 948.83 597.25 948.82 591.51 C 942.65 591.51 936.48 591.51 930.32 591.51 C 930.31 597.25 930.31 603.00 930.31 608.75 C 929.39 608.75 927.55 608.75 926.62 608.75 C 926.62 596.91 926.62 585.08 926.62 573.25 C 927.55 573.25 929.39 573.25 930.32 573.26 C 930.30 578.16 930.32 583.08 930.31 587.99 C 936.48 588.01 942.65 588.00 948.83 588.00 C 948.82 583.08 948.82 578.16 948.83 573.25 Z" />
<path fill="#ffffff" opacity="1.00" d=" M 604.48 608.77 C 610.37 596.75 616.01 584.61 622.07 572.67 C 628.27 584.52 633.68 596.77 639.56 608.78 C 638.22 608.75 636.88 608.74 635.56 608.71 C 633.76 604.87 631.87 601.07 630.00 597.26 C 624.71 597.27 619.42 597.27 614.14 597.26 C 612.27 601.09 610.41 604.91 608.57 608.75 C 607.20 608.75 605.83 608.75 604.48 608.77 M 615.85 593.75 C 620.02 593.75 624.20 593.75 628.38 593.75 C 626.34 589.47 624.23 585.22 622.26 580.92 C 619.85 585.05 617.99 589.48 615.85 593.75 Z" />
<path fill="#ffffff" opacity="1.00" d=" M 559.51 579.29 C 562.14 572.96 573.41 573.17 575.30 579.96 C 576.14 584.45 571.99 587.50 569.10 590.16 C 572.11 593.22 575.12 596.29 578.21 599.29 C 579.75 598.13 581.28 596.95 582.81 595.77 C 583.64 596.61 584.48 597.46 585.33 598.32 C 583.82 599.49 582.31 600.67 580.85 601.88 C 583.32 604.05 585.66 606.37 587.94 608.74 C 586.23 608.75 584.53 608.76 582.84 608.79 C 581.20 607.21 579.58 605.61 577.98 604.00 C 573.77 607.34 568.65 610.16 563.08 609.43 C 558.73 609.25 554.69 605.38 555.18 600.89 C 555.59 595.72 560.19 592.50 563.87 589.50 C 561.62 586.61 558.19 583.33 559.51 579.29 M 562.88 581.01 C 562.97 583.69 565.34 585.52 566.82 587.55 C 568.72 585.73 571.34 584.04 571.75 581.23 C 571.08 577.24 563.86 577.16 562.88 581.01 M 558.82 600.97 C 558.60 604.23 561.95 606.68 565.00 606.50 C 569.01 606.39 572.15 603.56 575.41 601.58 C 572.42 598.38 569.20 595.42 566.28 592.18 C 563.36 594.62 559.52 596.91 558.82 600.97 Z" />
</g>
</svg>
